HIERARCHY
ROOT Hips
{
  OFFSET 365.14 88.179 197.519
  CHANNELS 6 Xposition Yposition Zposition Zrotation Xrotation Yrotation
  JOINT RightUpLeg
  {
    OFFSET -9.25084 -1.53971 -0.0324706
    CHANNELS 3 Zrotation Xrotation Yrotation
    JOINT RightLeg
    {
      OFFSET 0.0147984 -41.8767 0.0743683
      CHANNELS 3 Zrotation Xrotation Yrotation
      JOINT RightFoot
      {
        OFFSET 0.58129 -42.7665 -0.0966173
        CHANNELS 3 Zrotation Xrotation Yrotation
        End Site
        {
          OFFSET 0 -7.69 17.5
        }
      }
    }
  }
  JOINT LeftUpLeg
  {
    OFFSET 9.27183 -1.63567 0.0208533
    CHANNELS 3 Zrotation Xrotation Yrotation
    JOINT LeftLeg
    {
      OFFSET 0.0380064 -41.894 -0.0332375
      CHANNELS 3 Zrotation Xrotation Yrotation
      JOINT LeftFoot
      {
        OFFSET -0.00137207 -40.7578 0.276477
        CHANNELS 3 Zrotation Xrotation Yrotation
        End Site
        {
          OFFSET 0 -7.69 17.5
        }
      }
    }
  }
  JOINT Spine
  {
    OFFSET 0.0273715 14.2953 0.0132618
    CHANNELS 3 Zrotation Xrotation Yrotation
    JOINT Spine1
    {
      OFFSET 0.0356242 9.71545 0.0178671
      CHANNELS 3 Zrotation Xrotation Yrotation
      JOINT Spine2
      {
        OFFSET 0.0275401 10.1205 0.00234803
        CHANNELS 3 Zrotation Xrotation Yrotation
        JOINT Spine3
        {
          OFFSET 0.0388833 9.71499 0.00573168
          CHANNELS 3 Zrotation Xrotation Yrotation
          JOINT Neck
          {
            OFFSET 0.0812761 10.3796 0.11061
            CHANNELS 3 Zrotation Xrotation Yrotation
            JOINT Head
            {
              OFFSET 0.0694951 9.4737 0.0873993
              CHANNELS 3 Zrotation Xrotation Yrotation
              End Site
              {
                OFFSET 0 15.95 0
              }
            }
          }
          JOINT RightShoulder
          {
            OFFSET -3.16911 6.92878 0.0176909
            CHANNELS 3 Zrotation Xrotation Yrotation
            JOINT RightArm
            {
              OFFSET -12.7939 0.0472484 0.0511932
              CHANNELS 3 Zrotation Xrotation Yrotation
              JOINT RightForeArm
              {
                OFFSET -26.5086 -0.00989181 0.0576382
                CHANNELS 3 Zrotation Xrotation Yrotation
                JOINT RightHand
                {
                  OFFSET -26.0357 0.339815 -0.212656
                  CHANNELS 3 Zrotation Xrotation Yrotation
                  JOINT RightHandThumb1
                  {
                    OFFSET -2.48905 0.190105 3.12053
                    CHANNELS 3 Zrotation Xrotation Yrotation
                    JOINT RightHandThumb2
                    {
                      OFFSET -3.68274 0 0
                      CHANNELS 3 Zrotation Xrotation Yrotation
                      JOINT RightHandThumb3
                      {
                        OFFSET -2.55832 0 0
                        CHANNELS 3 Zrotation Xrotation Yrotation
                        End Site
                        {
                          OFFSET -2.194 0 0
                        }
                      }
                    }
                  }
                  JOINT RightInHandIndex
                  {
                    OFFSET -3.22368 0.508421 1.97842
                    CHANNELS 3 Zrotation Xrotation Yrotation
                    JOINT RightHandIndex1
                    {
                      OFFSET -5.21684 -0.091368 0.999158
                      CHANNELS 3 Zrotation Xrotation Yrotation
                      JOINT RightHandIndex2
                      {
                        OFFSET -3.61937 0 0
                        CHANNELS 3 Zrotation Xrotation Yrotation
                        JOINT RightHandIndex3
                        {
                          OFFSET -2.0521 0 0
                          CHANNELS 3 Zrotation Xrotation Yrotation
                          End Site
                          {
                            OFFSET -1.805 0 0
                          }
                        }
                      }
                    }
                  }
                  JOINT RightInHandMiddle
                  {
                    OFFSET -3.38211 0.517263 0.756737
                    CHANNELS 3 Zrotation Xrotation Yrotation
                    JOINT RightHandMiddle1
                    {
                      OFFSET -5.17411 -0.084 0.313895
                      CHANNELS 3 Zrotation Xrotation Yrotation
                      JOINT RightHandMiddle2
                      {
                        OFFSET -3.94947 0 0
                        CHANNELS 3 Zrotation Xrotation Yrotation
                        JOINT RightHandMiddle3
                        {
                          OFFSET -2.47579 0 0
                          CHANNELS 3 Zrotation Xrotation Yrotation
                          End Site
                          {
                            OFFSET -1.975 0 0
                          }
                        }
                      }
                    }
                  }
                  JOINT RightInHandRing
                  {
                    OFFSET -3.36516 0.537895 -0.128947
                    CHANNELS 3 Zrotation Xrotation Yrotation
                    JOINT RightHandRing1
                    {
                      OFFSET -4.63474 -0.022105 -0.478947
                      CHANNELS 3 Zrotation Xrotation Yrotation
                      JOINT RightHandRing2
                      {
                        OFFSET -3.44238 0 0
                        CHANNELS 3 Zrotation Xrotation Yrotation
                        JOINT RightHandRing3
                        {
                          OFFSET -2.3881 0 0
                          CHANNELS 3 Zrotation Xrotation Yrotation
                          End Site
                          {
                            OFFSET -1.857 0 0
                          }
                        }
                      }
                    }
                  }
                  JOINT RightInHandPinky
                  {
                    OFFSET -3.16105 0.469368 -1.20179
                    CHANNELS 3 Zrotation Xrotation Yrotation
                    JOINT RightHandPinky1
                    {
                      OFFSET -4.14105 -0.022105 -1.09053
                      CHANNELS 3 Zrotation Xrotation Yrotation
                      JOINT RightHandPinky2
                      {
                        OFFSET -2.75653 0 0
                        CHANNELS 3 Zrotation Xrotation Yrotation
                        JOINT RightHandPinky3
                        {
                          OFFSET -1.74189 0 0
                          CHANNELS 3 Zrotation Xrotation Yrotation
                          End Site
                          {
                            OFFSET -1.645 0 0
                          }
                        }
                      }
                    }
                  }
                }
              }
            }
          }
          JOINT LeftShoulder
          {
            OFFSET 3.24184 6.89832 -0.0228965
            CHANNELS 3 Zrotation Xrotation Yrotation
            JOINT LeftArm
            {
              OFFSET 12.8376 -0.0155948 -0.0448787
              CHANNELS 3 Zrotation Xrotation Yrotation
              JOINT LeftForeArm
              {
                OFFSET 26.5019 -0.0237061 -0.00609661
                CHANNELS 3 Zrotation Xrotation Yrotation
                JOINT LeftHand
                {
                  OFFSET 25.9931 -0.0767526 0.00928659
                  CHANNELS 3 Zrotation Xrotation Yrotation
                  JOINT LeftHandThumb1
                  {
                    OFFSET 2.48905 0.190105 3.12053
                    CHANNELS 3 Zrotation Xrotation Yrotation
                    JOINT LeftHandThumb2
                    {
                      OFFSET 3.68274 0 0
                      CHANNELS 3 Zrotation Xrotation Yrotation
                      JOINT LeftHandThumb3
                      {
                        OFFSET 2.55832 0 0
                        CHANNELS 3 Zrotation Xrotation Yrotation
                        End Site
                        {
                          OFFSET 2.194 0 0
                        }
                      }
                    }
                  }
                  JOINT LeftInHandIndex
                  {
                    OFFSET 3.22368 0.508421 1.97842
                    CHANNELS 3 Zrotation Xrotation Yrotation
                    JOINT LeftHandIndex1
                    {
                      OFFSET 5.21684 -0.091368 0.999158
                      CHANNELS 3 Zrotation Xrotation Yrotation
                      JOINT LeftHandIndex2
                      {
                        OFFSET 3.61937 0 0
                        CHANNELS 3 Zrotation Xrotation Yrotation
                        JOINT LeftHandIndex3
                        {
                          OFFSET 2.0521 0 0
                          CHANNELS 3 Zrotation Xrotation Yrotation
                          End Site
                          {
                            OFFSET 1.805 0 0
                          }
                        }
                      }
                    }
                  }
                  JOINT LeftInHandMiddle
                  {
                    OFFSET 3.38211 0.517263 0.756737
                    CHANNELS 3 Zrotation Xrotation Yrotation
                    JOINT LeftHandMiddle1
                    {
                      OFFSET 5.17411 -0.084 0.313895
                      CHANNELS 3 Zrotation Xrotation Yrotation
                      JOINT LeftHandMiddle2
                      {
                        OFFSET 3.94947 0 0
                        CHANNELS 3 Zrotation Xrotation Yrotation
                        JOINT LeftHandMiddle3
                        {
                          OFFSET 2.47579 0 0
                          CHANNELS 3 Zrotation Xrotation Yrotation
                          End Site
                          {
                            OFFSET 1.975 0 0
                          }
                        }
                      }
                    }
                  }
                  JOINT LeftInHandRing
                  {
                    OFFSET 3.36516 0.537895 -0.128947
                    CHANNELS 3 Zrotation Xrotation Yrotation
                    JOINT LeftHandRing1
                    {
                      OFFSET 4.63474 -0.022105 -0.478947
                      CHANNELS 3 Zrotation Xrotation Yrotation
                      JOINT LeftHandRing2
                      {
                        OFFSET 3.44238 0 0
                        CHANNELS 3 Zrotation Xrotation Yrotation
                        JOINT LeftHandRing3
                        {
                          OFFSET 2.3881 0 0
                          CHANNELS 3 Zrotation Xrotation Yrotation
                          End Site
                          {
                            OFFSET 1.857 0 0
                          }
                        }
                      }
                    }
                  }
                  JOINT LeftInHandPinky
                  {
                    OFFSET 3.16105 0.469368 -1.20179
                    CHANNELS 3 Zrotation Xrotation Yrotation
                    JOINT LeftHandPinky1
                    {
                      OFFSET 4.14105 -0.022105 -1.09053
                      CHANNELS 3 Zrotation Xrotation Yrotation
                      JOINT LeftHandPinky2
                      {
                        OFFSET 2.75653 0 0
                        CHANNELS 3 Zrotation Xrotation Yrotation
                        JOINT LeftHandPinky3
                        {
                          OFFSET 1.74189 0 0
                          CHANNELS 3 Zrotation Xrotation Yrotation
                          End Site
                          {
                            OFFSET 1.645 0 0
                          }
                        }
                      }
                    }
                  }
                }
              }
            }
          }
        }
      }
    }
  }
}
MOTION
Frames: 3
Frame Time: 0.00833333
7.499980176144467805e+02 -7.008706184696056329e-02 -2.456660862083172997e-02 -5.638845676533302959e-02 1.997054164414363286e-01 -5.381604303382152288e-02 1.868787924773268605e-03 -1.021174510629611759e-01 -5.131931165529169947e-01 1.149569755059813396e-02 2.481057613271265283e-01 -2.865899895364213898e-02 -5.009715666478356533e-03 1.420194144218177579e-01 3.836960389611659972e-01 1.294926461881621416e-01 3.354506828102843397e-02 -1.477969112461919310e-01 -1.550495358496159215e-01 -6.070452366568847291e-02 1.166846566301732169e-01 1.005850855505141389e-01 4.230261437060033047e-03 2.500230160524614664e-01 3.506599491916326944e-02 -1.312076158693418759e-01 -1.153728314349832251e-01 5.735869511264899551e-03 -2.981423735153203303e-02 -2.496399131986157954e-02 5.578559608978261343e-03 -5.074623375991633989e-02 -3.480139266481236532e-02 5.589712596023973384e-03 -4.673398774774047484e-03 1.242102762359306896e-02 2.363726503885997254e-01 5.576450177681953058e-01 -5.310579175431145993e-01 -9.598184164518547279e-02 -8.558455210439654959e-01 4.366869681393976688e-01 1.445391010274873766e-01 5.164886690021813775e-01 -1.154021574525773558e-01 1.136614330565194342e-03 -1.041424845460320769e+00 5.775642438236331389e-01 3.316011704668867743e+00 -1.067379300315557611e+00 -2.472981267514835935e+00 -1.209134164039961101e-01 1.918297292083902317e+00 3.203167892939717820e-01 0.000000000000000000e+00 0.000000000000000000e+00 0.000000000000000000e+00 2.596661475107999007e-15 1.204979973970692825e-15 0.000000000000000000e+00 1.600027042720396918e-15 -3.482245539661662634e-16 0.000000000000000000e+00 5.662144586164011503e-16 5.272530753327649758e-16 -8.281025451098519590e-16 0.000000000000000000e+00 0.000000000000000000e+00 0.000000000000000000e+00 0.000000000000000000e+00 7.222525409867972372e-16 2.006918777775420631e-15 0.000000000000000000e+00 2.133718317119207273e-16 -6.884104517609182843e-16 5.662144586164011503e-16 5.272530753327649758e-16 -8.281025451098519590e-16 0.000000000000000000e+00 -6.515267951072433165e-16 -1.859453693725722458e-16 0.000000000000000000e+00 -3.452027442253976248e-16 3.678695176631933201e-16 0.000000000000000000e+00 -7.680928962708337124e-16 -1.655998346629903767e-15 5.662144586164011503e-16 5.272530753327649758e-16 -8.281025451098519590e-16 0.000000000000000000e+00 0.000000000000000000e+00 0.000000000000000000e+00 0.000000000000000000e+00 -5.727072683485529159e-16 9.918823969614571035e-16 0.000000000000000000e+00 -2.438032691204159891e-16 -1.468534889681079046e-15 5.662144586164011503e-16 5.272530753327649758e-16 -8.281025451098519590e-16 0.000000000000000000e+00 0.000000000000000000e+00 0.000000000000000000e+00 0.000000000000000000e+00 -8.044428043490840459e-16 1.463348027486976956e-16 0.000000000000000000e+00 1.232006509987750877e-15 1.401314196293825286e-15 1.687011013967540732e-02 5.136926186386566728e-01 2.666881263564674920e-01 1.818066721327784296e-01 -2.637102913039878760e-01 -4.403535969595426258e-01 -4.031528282971296173e-01 2.465685425958780985e-01 8.482046099010069895e-01 -2.525954735748791799e-02 2.242818241174815430e-02 -7.032483562663333077e-01 0.000000000000000000e+00 0.000000000000000000e+00 0.000000000000000000e+00 -6.476089338068965736e-16 -2.272469589998294385e-16 0.000000000000000000e+00 -6.950025599051681565e-16 2.259068842145870929e-15 0.000000000000000000e+00 1.978827617427280717e-15 1.144322584150260483e-15 1.160397239949711237e-16 0.000000000000000000e+00 0.000000000000000000e+00 0.000000000000000000e+00 0.000000000000000000e+00 9.138711997138761841e-16 -5.902269196916438279e-16 0.000000000000000000e+00 -4.082901656516580198e-16 1.129231375097443806e-15 1.978827617427280717e-15 1.144322584150260483e-15 1.160397239949711237e-16 0.000000000000000000e+00 -1.142125880604982985e-15 3.257714586160143615e-15 0.000000000000000000e+00 -2.071211173022869503e-16 2.876024165649244536e-15 0.000000000000000000e+00 2.643960216638984782e-15 1.800060391122585588e-15 1.978827617427280717e-15 1.144322584150260483e-15 1.160397239949711237e-16 0.000000000000000000e+00 0.000000000000000000e+00 0.000000000000000000e+00 0.000000000000000000e+00 -2.031213565908725435e-15 5.343359423839679898e-16 0.000000000000000000e+00 2.174787944603166242e-15 1.517762653207947393e-15 1.978827617427280717e-15 1.144322584150260483e-15 1.160397239949711237e-16 0.000000000000000000e+00 0.000000000000000000e+00 0.000000000000000000e+00 0.000000000000000000e+00 -1.189320968876157584e-15 3.027692086079065988e-15 0.000000000000000000e+00 -1.443470296705382442e-16 1.616872664566450818e-15
7.500041754560631944e+02 -6.347745760336395704e-02 -2.819014166373189773e-02 -3.070719202077624652e-02 2.268902608823520350e-01 5.706427440065114931e-02 -6.852265756448010225e-02 -9.047468978177206078e-02 -6.382542345831671016e-01 1.821488536841458020e-02 2.588827012343103418e-01 -1.542393176406413671e-02 2.707572792312923707e-02 9.363687245730886732e-02 3.340235707518716679e-01 9.484753455823137502e-02 1.161543420323215420e-02 -2.551143197287417674e-01 -1.490036070548898528e-01 -6.098721976916913340e-02 9.072364744271704806e-02 9.744523201083163388e-02 -6.308985592344829030e-04 2.541687176367757317e-01 7.513815691089961724e-02 -1.414030568591784498e-01 -1.737700379122871785e-01 1.416625132065651646e-02 -2.801894291548213262e-02 -3.879760205647745513e-02 1.960354547825369012e-02 -4.421747506944365136e-02 -5.695128731071467942e-02 5.282413985723825173e-03 -6.957784882850454045e-03 1.115445933038605210e-02 1.996505139749922830e-01 5.213913235800891055e-01 -5.085560105325950264e-01 -7.836792505628932537e-02 -8.452822086737720175e-01 4.171767372796321705e-01 1.431675207887652124e-01 4.908970827693540651e-01 -1.081007602120576117e-01 7.519546919975908517e-02 -1.021529957943733358e+00 6.202741981186583597e-01 3.298156093852238069e+00 -9.960292783288261509e-01 -2.481832115680733697e+00 -4.557979574623631513e-02 1.979262239304280468e+00 4.205735373021973200e-01 0.000000000000000000e+00 0.000000000000000000e+00 0.000000000000000000e+00 2.604825237412473749e-15 1.320869502878822046e-15 0.000000000000000000e+00 1.595104361423613128e-15 -3.239675200919696636e-16 0.000000000000000000e+00 6.173665400615284322e-16 5.260267866315933951e-16 -6.542060213541435048e-16 0.000000000000000000e+00 0.000000000000000000e+00 0.000000000000000000e+00 0.000000000000000000e+00 7.810614805354308046e-16 2.131285259337830188e-15 0.000000000000000000e+00 3.527754369436679442e-17 -7.182462513634708081e-16 6.173665400615284322e-16 5.260267866315933951e-16 -6.542060213541435048e-16 0.000000000000000000e+00 -5.081087232029419425e-16 2.328636888725853636e-17 0.000000000000000000e+00 -2.126942272828866340e-16 1.735557094304118949e-16 0.000000000000000000e+00 -7.260360158247053523e-16 -1.488507767252983798e-15 6.173665400615284322e-16 5.260267866315933951e-16 -6.542060213541435048e-16 0.000000000000000000e+00 0.000000000000000000e+00 0.000000000000000000e+00 0.000000000000000000e+00 -5.820980831590357807e-16 9.898579925695761930e-16 0.000000000000000000e+00 -2.581516125456888708e-16 -1.369438071852087609e-15 6.173665400615284322e-16 5.260267866315933951e-16 -6.542060213541435048e-16 0.000000000000000000e+00 0.000000000000000000e+00 0.000000000000000000e+00 0.000000000000000000e+00 -7.262861898857983916e-16 1.224724832271780398e-16 0.000000000000000000e+00 1.223432121136354386e-15 1.114412885129074379e-15 3.306203396181932319e-02 4.848438940179397583e-01 2.697689966517093918e-01 1.667219750896784258e-01 -2.616627177545093330e-01 -4.961404554929148003e-01 -4.606997009686888966e-01 2.845336768543278438e-01 9.015876386102976703e-01 -3.138711759418566505e-02 8.146187088669434861e-02 -7.804984321392476332e-01 0.000000000000000000e+00 0.000000000000000000e+00 0.000000000000000000e+00 -4.031102850901863797e-16 -4.652448755948240513e-16 0.000000000000000000e+00 -5.354712084277014909e-16 2.159965266514883454e-15 0.000000000000000000e+00 1.994748751683085376e-15 1.191047966780269410e-15 1.885273616706571299e-16 0.000000000000000000e+00 0.000000000000000000e+00 0.000000000000000000e+00 0.000000000000000000e+00 8.800337652199548681e-16 -4.152319117406333668e-16 0.000000000000000000e+00 -3.375555234526858425e-16 8.972752375319077746e-16 1.994748751683085376e-15 1.191047966780269410e-15 1.885273616706571299e-16 0.000000000000000000e+00 -9.854161731569105529e-16 3.299192042846202159e-15 0.000000000000000000e+00 -1.705343388180821621e-16 3.108351539696936039e-15 0.000000000000000000e+00 2.675741774891577818e-15 1.707980121988004793e-15 1.994748751683085376e-15 1.191047966780269410e-15 1.885273616706571299e-16 0.000000000000000000e+00 0.000000000000000000e+00 0.000000000000000000e+00 0.000000000000000000e+00 -2.055331269073297070e-15 4.520985589308103246e-16 0.000000000000000000e+00 1.931739508765249074e-15 1.451439996477726172e-15 1.994748751683085376e-15 1.191047966780269410e-15 1.885273616706571299e-16 0.000000000000000000e+00 0.000000000000000000e+00 0.000000000000000000e+00 0.000000000000000000e+00 -1.397287924285654748e-15 3.157443916751787097e-15 0.000000000000000000e+00 -9.305799522224087079e-17 1.711991164516832186e-15
7.500091507102537207e+02 -5.604536189046178257e-02 -3.148668102148285269e-02 -7.528306104296380794e-03 2.472548856688921992e-01 1.533308662950802204e-01 -1.296591929692811340e-01 -7.530982338511368890e-02 -7.344768722389795057e-01 2.590241851223589950e-02 2.646565123912250073e-01 -1.944725292731420280e-03 5.719766646137469657e-02 4.453808489202300269e-02 2.802253394030084221e-01 6.274518778782330053e-02 -4.327255930418792695e-03 -3.439201142151031565e-01 -1.413860901213395693e-01 -6.106429491668478177e-02 6.475890106156040327e-02 9.308020949946990696e-02 -6.062780157342229775e-03 2.539120898052226183e-01 1.096413825307754053e-01 -1.472058225017083000e-01 -2.208603730024054912e-01 2.149188992452824576e-02 -2.549940472198517979e-02 -5.001964412254868847e-02 3.188048856168940876e-02 -3.682765099212512855e-02 -7.501188373572340029e-02 4.959401896452324265e-03 -9.087260857119982410e-03 9.650576707946983274e-03 1.604681017616404193e-01 4.765523420015946310e-01 -4.732827645003950257e-01 -5.813752066952056208e-02 -8.182531821935143945e-01 3.851870854317334114e-01 1.411031224578493948e-01 4.568335429470692932e-01 -1.045691068175061966e-01 1.385333340973922689e-01 -9.814499631306069505e-01 6.423186170717850585e-01 3.208770235151614081e+00 -9.037369510717483401e-01 -2.424976897329197190e+00 2.360987838781697379e-02 1.984245808249195830e+00 4.969148315412164063e-01 0.000000000000000000e+00 0.000000000000000000e+00 0.000000000000000000e+00 2.550528265551554553e-15 1.417602699853349680e-15 0.000000000000000000e+00 1.565381371073515404e-15 -2.943673613053780559e-16 0.000000000000000000e+00 6.527459585619131214e-16 5.123669123392459691e-16 -4.793638860512813564e-16 0.000000000000000000e+00 0.000000000000000000e+00 0.000000000000000000e+00 0.000000000000000000e+00 8.331510515084104675e-16 2.209940535416419630e-15 0.000000000000000000e+00 -1.253990365744687232e-16 -7.141667759114995048e-16 6.527459585619131214e-16 5.123669123392459691e-16 -4.793638860512813564e-16 0.000000000000000000e+00 -3.531396880221351632e-16 2.130864374275434985e-16 0.000000000000000000e+00 -8.421602451964403598e-17 1.224178266747011875e-17 0.000000000000000000e+00 -6.746797103591945040e-16 -1.278704697898616931e-15 6.527459585619131214e-16 5.123669123392459691e-16 -4.793638860512813564e-16 0.000000000000000000e+00 0.000000000000000000e+00 0.000000000000000000e+00 0.000000000000000000e+00 -5.899453684031430835e-16 9.632469082708882752e-16 0.000000000000000000e+00 -2.695885281739750757e-16 -1.221375939056133922e-15 6.527459585619131214e-16 5.123669123392459691e-16 -4.793638860512813564e-16 0.000000000000000000e+00 0.000000000000000000e+00 0.000000000000000000e+00 0.000000000000000000e+00 -6.195530278144900758e-16 1.279970612432487271e-16 0.000000000000000000e+00 1.199988366309099979e-15 8.312367347733954352e-16 4.956287753468878454e-02 4.467001258486107407e-01 2.679425414978132691e-01 1.457320119281996229e-01 -2.529563517481417945e-01 -5.435459113445291202e-01 -5.059212468387750405e-01 3.173546879002999144e-01 9.381590997199655835e-01 -3.920845819849716474e-02 1.349526477184846418e-01 -8.347169665378308956e-01 0.000000000000000000e+00 0.000000000000000000e+00 0.000000000000000000e+00 -1.625610426492599108e-16 -6.738603346226837933e-16 0.000000000000000000e+00 -3.559163235374962987e-16 2.029507169713904441e-15 0.000000000000000000e+00 1.964671690100072257e-15 1.212236836309616122e-15 2.631136766408667523e-16 0.000000000000000000e+00 0.000000000000000000e+00 0.000000000000000000e+00 0.000000000000000000e+00 8.376973160142853780e-16 -2.244519940922892757e-16 0.000000000000000000e+00 -2.529536112940382971e-16 6.691810235549330119e-16 1.964671690100072257e-15 1.212236836309616122e-15 2.631136766408667523e-16 0.000000000000000000e+00 -8.290134942318604956e-16 3.277326660860996475e-15 0.000000000000000000e+00 -1.372315344099906731e-16 3.257092968928262741e-15 0.000000000000000000e+00 2.626810530067558920e-15 1.579165286098892551e-15 1.964671690100072257e-15 1.212236836309616122e-15 2.631136766408667523e-16 0.000000000000000000e+00 0.000000000000000000e+00 0.000000000000000000e+00 0.000000000000000000e+00 -2.032062527121645811e-15 3.797624966122141880e-16 0.000000000000000000e+00 1.657976673157071023e-15 1.350125526631991819e-15 1.964671690100072257e-15 1.212236836309616122e-15 2.631136766408667523e-16 0.000000000000000000e+00 0.000000000000000000e+00 0.000000000000000000e+00 0.000000000000000000e+00 -1.558199929422963207e-15 3.201942952689100590e-15 0.000000000000000000e+00 -4.938514261607037363e-17 1.761098740163894324e-15
